# xmcd CD database file
#
# Track frame offsets:
#	150
#	18251
#	33467
#	47152
#	62219
#	75340
#	88172
#	109496
#	127624
#	142725
#
# Disc length: 2052 seconds
#
# Revision: 0
# Processed by: cddbd v1.5.1PL2 Copyright (c) Steve Scherf et al.
# Submitted via: CDex 1.51
#
DISCID=7808020a
DTITLE=山部善次郎 - Danger
DYEAR=1900
DGENRE=Rock
TTITLE0=One More Time
TTITLE1=Boogie Baby
TTITLE2=oh,yeah all right
TTITLE3=３歩さがって撃て
TTITLE4=Rock'n'roll Doctor
TTITLE5=誰かが邪魔してる
TTITLE6=Good-Bye mama
TTITLE7=気まぐれな雨
TTITLE8=風の中の誓い
TTITLE9=イカシタ気分
EXTD=
EXTT0=
EXTT1=
EXTT2=
EXTT3=
EXTT4=
EXTT5=
EXTT6=
EXTT7=
EXTT8=
EXTT9=
PLAYORDER=
